<?xml version="1.0" standalone="no"?><!DOCTYPE svg PUBLIC "-//W3C//DTD SVG 1.1//EN" "http://www.w3.org/Graphics/SVG/1.1/DTD/svg11.dtd"><svg t="1640782920355" class="icon" viewBox="0 0 1024 1024" version="1.1" xmlns="http://www.w3.org/2000/svg" p-id="3907" xmlns:xlink="http://www.w3.org/1999/xlink" width="16" height="16"><defs><style type="text/css"></style></defs><path d="M938.44992 815.781888h-58.157056V349.82912c0-28.227584-22.882304-51.110912-51.109888-51.110912H635.89376V167.845888c0-28.227584-22.882304-51.109888-51.109888-51.109888H202.38848c-28.227584 0-51.110912 22.882304-51.110912 51.109888v647.936H86.46144C70.43072 815.781888 57.344 828.791808 57.344 844.899328v34.0736c0 16.029696 13.00992 29.116416 29.11744 29.116416h851.98848c16.029696 0 29.11744-13.008896 29.11744-29.116416v-34.0736c-0.033792-16.06656-13.049856-29.083648-29.11744-29.11744z m-576.07168-90.216448h-92.230656v-92.23168h92.230656v92.23168z m0-151.781376h-92.230656V481.47456h92.230656v92.30848z m0-151.16288h-92.230656v-92.307456h92.230656v92.30848z m153.09824 302.944256H423.168v-92.23168h92.230656v92.23168h0.0768z m0-151.781376H423.168V481.47456h92.230656v92.30848h0.0768z m0-151.16288H423.168v-92.307456h92.230656v92.30848h0.0768z m242.46272 302.944256h-92.23168v-92.23168h92.23168v92.23168z m0-151.781376h-92.23168V481.47456h92.23168v92.30848z" fill="#508CFF" p-id="3908"></path></svg>