<?xml version="1.0" encoding="UTF-8"?>
<!DOCTYPE svg PUBLIC "-//W3C//DTD SVG 1.1//EN" "http://www.w3.org/Graphics/SVG/1.1/DTD/svg11.dtd">
<svg xmlns="http://www.w3.org/2000/svg" version="1.1" width="48px" height="48px" style="shape-rendering:geometricPrecision; text-rendering:geometricPrecision; image-rendering:optimizeQuality; fill-rule:evenodd; clip-rule:evenodd" xmlns:xlink="http://www.w3.org/1999/xlink">
<g><path style="opacity:0.889" fill="#c1c5cd" d="M 12.5,3.5 C 13.8734,3.34332 15.2068,3.50999 16.5,4C 22.0313,9.86597 27.8647,15.366 34,20.5C 34.5,21.5 35,22.5 35.5,23.5C 33.7333,26.7698 31.4,29.6032 28.5,32C 23.9526,36.054 19.2859,39.8873 14.5,43.5C 11.1481,42.783 10.6481,41.1164 13,38.5C 18.6492,34.0178 23.8158,29.0178 28.5,23.5C 23.8158,17.9822 18.6492,12.9822 13,8.5C 12.6258,7.58377 12.1258,6.75044 11.5,6C 12.2524,5.32924 12.5858,4.4959 12.5,3.5 Z"/></g>
</svg>
