<?xml version="1.0" encoding="UTF-8"?>
<!DOCTYPE svg PUBLIC "-//W3C//DTD SVG 1.1//EN" "http://www.w3.org/Graphics/SVG/1.1/DTD/svg11.dtd">
<svg xmlns="http://www.w3.org/2000/svg" version="1.1" width="192px" height="192px" style="shape-rendering:geometricPrecision; text-rendering:geometricPrecision; image-rendering:optimizeQuality; fill-rule:evenodd; clip-rule:evenodd" xmlns:xlink="http://www.w3.org/1999/xlink">
<g><path style="opacity:1" fill="#fed991" d="M 101.5,1.5 C 101.5,14.8333 101.5,28.1667 101.5,41.5C 97.5,41.5 93.5,41.5 89.5,41.5C 89.5,28.1667 89.5,14.8333 89.5,1.5C 93.5,0.166667 97.5,0.166667 101.5,1.5 Z"/></g>
<g><path style="opacity:0.988" fill="#f4b943" d="M 89.5,1.5 C 89.5,14.8333 89.5,28.1667 89.5,41.5C 93.5,41.5 97.5,41.5 101.5,41.5C 101.5,28.1667 101.5,14.8333 101.5,1.5C 123.594,5.65652 135.594,18.9899 137.5,41.5C 109.5,42.8333 81.5,42.8333 53.5,41.5C 55.4109,18.9721 67.4109,5.63881 89.5,1.5 Z"/></g>
<g><path style="opacity:0.983" fill="#efa414" d="M 53.5,41.5 C 81.5,42.8333 109.5,42.8333 137.5,41.5C 139.167,41.5 140.833,41.5 142.5,41.5C 142.5,45.1667 142.5,48.8333 142.5,52.5C 139.833,52.5 137.167,52.5 134.5,52.5C 128.5,52.5 122.5,52.5 116.5,52.5C 115.167,52.5 113.833,52.5 112.5,52.5C 101.167,52.5 89.8333,52.5 78.5,52.5C 77.1667,52.5 75.8333,52.5 74.5,52.5C 68.5,52.5 62.5,52.5 56.5,52.5C 53.8333,52.5 51.1667,52.5 48.5,52.5C 48.5,48.8333 48.5,45.1667 48.5,41.5C 50.1667,41.5 51.8333,41.5 53.5,41.5 Z"/></g>
<g><path style="opacity:1" fill="#fbd5b1" d="M 56.5,52.5 C 62.5,52.5 68.5,52.5 74.5,52.5C 72.685,54.4685 72.185,56.8018 73,59.5C 78.5187,62.6659 80.852,60.9992 80,54.5C 79.2828,53.9558 78.7828,53.2891 78.5,52.5C 89.8333,52.5 101.167,52.5 112.5,52.5C 109.357,56.4609 110.024,59.4609 114.5,61.5C 117.302,61.0291 118.636,59.3625 118.5,56.5C 118.197,54.8857 117.53,53.5523 116.5,52.5C 122.5,52.5 128.5,52.5 134.5,52.5C 130.692,80.4642 114.692,92.9642 86.5,90C 67.7615,84.4338 57.7615,71.9338 56.5,52.5 Z"/></g>
<g><path style="opacity:1" fill="#272836" d="M 74.5,52.5 C 75.8333,52.5 77.1667,52.5 78.5,52.5C 78.7828,53.2891 79.2828,53.9558 80,54.5C 80.852,60.9992 78.5187,62.6659 73,59.5C 72.185,56.8018 72.685,54.4685 74.5,52.5 Z"/></g>
<g><path style="opacity:1" fill="#272836" d="M 112.5,52.5 C 113.833,52.5 115.167,52.5 116.5,52.5C 117.53,53.5523 118.197,54.8857 118.5,56.5C 118.636,59.3625 117.302,61.0291 114.5,61.5C 110.024,59.4609 109.357,56.4609 112.5,52.5 Z"/></g>
<g><path style="opacity:0.986" fill="#718da7" d="M 36.5,91.5 C 49.8375,91.3334 63.1708,91.5001 76.5,92C 74.683,93.7998 73.5163,95.9664 73,98.5C 71.7557,114.793 73.4224,130.793 78,146.5C 81.9971,160.824 85.8305,175.157 89.5,189.5C 71.4969,189.667 53.4969,189.5 35.5,189C 27.7819,186.081 22.9485,180.581 21,172.5C 20.3333,151.167 20.3333,129.833 21,108.5C 23.247,100.09 28.4137,94.4231 36.5,91.5 Z"/></g>
<g><path style="opacity:0.979" fill="#718da6" d="M 114.5,92.5 C 127.66,91.3396 140.994,91.173 154.5,92C 162.775,94.6073 167.941,100.107 170,108.5C 170.667,129.833 170.667,151.167 170,172.5C 168.051,180.581 163.218,186.081 155.5,189C 137.503,189.5 119.503,189.667 101.5,189.5C 105.17,175.157 109.003,160.824 113,146.5C 117.296,131.098 118.963,115.431 118,99.5C 117.856,96.5578 116.689,94.2244 114.5,92.5 Z M 126.5,151.5 C 136.172,151.334 145.839,151.5 155.5,152C 156.833,153.333 156.833,154.667 155.5,156C 145.833,156.667 136.167,156.667 126.5,156C 125.272,154.51 125.272,153.01 126.5,151.5 Z"/></g>
<g><path style="opacity:0.971" fill="#718da7" d="M 93.5,97.5 C 96.2257,97.2639 98.559,98.0972 100.5,100C 105.73,104.066 110.397,108.566 114.5,113.5C 108.899,130.469 103.399,147.469 98,164.5C 96.3333,167.167 94.6667,167.167 93,164.5C 87.6008,147.469 82.1008,130.469 76.5,113.5C 76.5288,111.971 77.1955,110.804 78.5,110C 83.9403,106.291 88.9403,102.125 93.5,97.5 Z"/></g>
</svg>
