<?xml version="1.0" encoding="UTF-8"?>
<!DOCTYPE svg PUBLIC "-//W3C//DTD SVG 1.1//EN" "http://www.w3.org/Graphics/SVG/1.1/DTD/svg11.dtd">
<svg xmlns="http://www.w3.org/2000/svg" version="1.1" width="80px" height="80px" style="shape-rendering:geometricPrecision; text-rendering:geometricPrecision; image-rendering:optimizeQuality; fill-rule:evenodd; clip-rule:evenodd" xmlns:xlink="http://www.w3.org/1999/xlink">
<g><path style="opacity:0.971" fill="#1e8aee" d="M 66.5,13.5 C 63.9108,12.5806 61.9108,10.914 60.5,8.5C 62.0174,8.51056 63.1841,9.17723 64,10.5C 64.8333,9.66667 65.6667,8.83333 66.5,8C 65.1592,4.35982 66.4925,2.02649 70.5,1C 78.8445,1.09603 80.5112,4.42937 75.5,11C 73.2305,11.7581 71.0639,11.5914 69,10.5C 67.955,11.3734 67.1217,12.3734 66.5,13.5 Z"/></g>
<g><path style="opacity:0.994" fill="#4e90fb" d="M 60.5,8.5 C 61.9108,10.914 63.9108,12.5806 66.5,13.5C 69.6588,16.9983 71.9921,20.9983 73.5,25.5C 70.4281,25.8174 67.4281,25.4841 64.5,24.5C 59.1949,13.1928 50.5282,8.19281 38.5,9.5C 31.8423,10.6618 26.1756,13.6618 21.5,18.5C 17.8183,18.3347 14.1516,18.5014 10.5,19C 9.62656,20.045 8.62656,20.8783 7.5,21.5C 9.11335,18.8682 10.78,16.2016 12.5,13.5C 11.1974,10.6213 9.1974,9.95461 6.5,11.5C 1.92276,10.0794 0.422759,7.07936 2,2.5C 4.5999,0.109285 7.26657,0.109285 10,2.5C 10.6675,5.84395 12.3342,8.51062 15,10.5C 26.0238,1.49648 38.3571,-0.836853 52,3.5C 55.2927,4.55646 58.126,6.22312 60.5,8.5 Z"/></g>
<g><path style="opacity:1" fill="#e9f5fd" d="M 38.5,9.5 C 48.0455,10.0886 55.0455,14.4219 59.5,22.5C 57.8333,23.8333 56.1667,23.8333 54.5,22.5C 54.5299,21.5028 54.0299,20.8361 53,20.5C 51.2355,21.6321 49.4021,22.6321 47.5,23.5C 45.7704,26.1078 43.937,26.1078 42,23.5C 41.586,23.9574 41.086,24.2907 40.5,24.5C 39.7568,23.0921 38.9234,21.7588 38,20.5C 36.8691,24.8315 34.7024,25.8315 31.5,23.5C 29.5979,22.6321 27.7645,21.6321 26,20.5C 24.9701,20.8361 24.4701,21.5028 24.5,22.5C 21.9365,23.0694 19.7698,24.4028 18,26.5C 17.805,25.1807 17.9717,23.8474 18.5,22.5C 19.4884,21.205 20.4884,19.8717 21.5,18.5C 26.1756,13.6618 31.8423,10.6618 38.5,9.5 Z"/></g>
<g><path style="opacity:1" fill="#2c86fe" d="M 31.5,23.5 C 30.9515,26.3893 29.1182,28.056 26,28.5C 25.5,28.1667 25,27.8333 24.5,27.5C 25.2634,26.2807 26.2634,25.2807 27.5,24.5C 26.6431,23.5748 25.6431,22.9081 24.5,22.5C 24.4701,21.5028 24.9701,20.8361 26,20.5C 27.7645,21.6321 29.5979,22.6321 31.5,23.5 Z"/></g>
<g><path style="opacity:1" fill="#2282fe" d="M 54.5,22.5 C 53.3569,22.9081 52.3569,23.5748 51.5,24.5C 52.7366,25.2807 53.7366,26.2807 54.5,27.5C 50.9289,28.544 48.5956,27.2106 47.5,23.5C 49.4021,22.6321 51.2355,21.6321 53,20.5C 54.0299,20.8361 54.5299,21.5028 54.5,22.5 Z"/></g>
<g><path style="opacity:1" fill="#5098fa" d="M 21.5,18.5 C 20.4884,19.8717 19.4884,21.205 18.5,22.5C 16.1663,24.1757 15.1663,26.509 15.5,29.5C 12.2089,30.2572 8.8756,30.9239 5.5,31.5C 3.82351,32.1834 3.15684,33.5168 3.5,35.5C 2.5,35.5 1.5,35.5 0.5,35.5C 0.278632,32.7212 0.611966,30.0545 1.5,27.5C 2.67504,27.719 3.67504,27.3857 4.5,26.5C 5.27451,24.6036 6.27451,22.937 7.5,21.5C 8.62656,20.8783 9.62656,20.045 10.5,19C 14.1516,18.5014 17.8183,18.3347 21.5,18.5 Z"/></g>
<g><path style="opacity:0.977" fill="#3f93f4" d="M 38.5,9.5 C 50.5282,8.19281 59.1949,13.1928 64.5,24.5C 67.4281,25.4841 70.4281,25.8174 73.5,25.5C 74.4674,26.8062 75.8007,27.4729 77.5,27.5C 78.2653,30.0961 78.5987,32.7628 78.5,35.5C 77.1667,35.5 75.8333,35.5 74.5,35.5C 74.8432,33.5168 74.1765,32.1834 72.5,31.5C 70.6208,30.6586 68.6208,30.3253 66.5,30.5C 65.7945,37.5565 62.1278,40.8898 55.5,40.5C 62.1617,37.6756 64.3283,32.6756 62,25.5C 61.6232,24.0577 60.7899,23.0577 59.5,22.5C 55.0455,14.4219 48.0455,10.0886 38.5,9.5 Z"/></g>
<g><path style="opacity:1" fill="#dbeffc" d="M 47.5,23.5 C 48.5956,27.2106 50.9289,28.544 54.5,27.5C 53.7366,26.2807 52.7366,25.2807 51.5,24.5C 52.3569,23.5748 53.3569,22.9081 54.5,22.5C 56.1667,23.8333 57.8333,23.8333 59.5,22.5C 60.7899,23.0577 61.6232,24.0577 62,25.5C 64.3283,32.6756 62.1617,37.6756 55.5,40.5C 44.5474,42.9065 33.5474,43.0732 22.5,41C 17.4891,38.8046 15.1558,34.9712 15.5,29.5C 15.1663,26.509 16.1663,24.1757 18.5,22.5C 17.9717,23.8474 17.805,25.1807 18,26.5C 19.7698,24.4028 21.9365,23.0694 24.5,22.5C 25.6431,22.9081 26.6431,23.5748 27.5,24.5C 26.2634,25.2807 25.2634,26.2807 24.5,27.5C 25,27.8333 25.5,28.1667 26,28.5C 29.1182,28.056 30.9515,26.3893 31.5,23.5C 34.7024,25.8315 36.8691,24.8315 38,20.5C 38.9234,21.7588 39.7568,23.0921 40.5,24.5C 41.086,24.2907 41.586,23.9574 42,23.5C 43.937,26.1078 45.7704,26.1078 47.5,23.5 Z"/></g>
<g><path style="opacity:1" fill="#facfcd" d="M 52.5,29.5 C 54.1667,29.5 55.8333,29.5 57.5,29.5C 57.5,30.8333 57.5,32.1667 57.5,33.5C 55.8333,33.5 54.1667,33.5 52.5,33.5C 52.5,32.1667 52.5,30.8333 52.5,29.5 Z"/></g>
<g><path style="opacity:1" fill="#74b4f2" d="M 35.5,29.5 C 38.1667,29.5 40.8333,29.5 43.5,29.5C 42.6615,34.6677 40.1615,35.6677 36,32.5C 35.5172,31.552 35.3505,30.552 35.5,29.5 Z"/></g>
<g><path style="opacity:1" fill="#facecc" d="M 20.5,29.5 C 21.8734,29.3433 23.2068,29.51 24.5,30C 25.4506,30.7175 25.6172,31.5509 25,32.5C 21.0539,34.3597 19.5539,33.3597 20.5,29.5 Z"/></g>
<g><path style="opacity:1" fill="#6db2f6" d="M 77.5,27.5 C 78.1667,27.8333 78.8333,28.1667 79.5,28.5C 79.5,32.1667 79.5,35.8333 79.5,39.5C 78.391,39.5569 77.391,39.8902 76.5,40.5C 71.5509,39.2839 70.2176,36.2839 72.5,31.5C 74.1765,32.1834 74.8432,33.5168 74.5,35.5C 75.8333,35.5 77.1667,35.5 78.5,35.5C 78.5987,32.7628 78.2653,30.0961 77.5,27.5 Z"/></g>
<g><path style="opacity:1" fill="#5fa5fb" d="M -0.5,27.5 C 0.166667,27.5 0.833333,27.5 1.5,27.5C 0.611966,30.0545 0.278632,32.7212 0.5,35.5C 1.5,35.5 2.5,35.5 3.5,35.5C 3.36912,36.3764 3.70245,37.0431 4.5,37.5C 5.46557,35.604 5.7989,33.604 5.5,31.5C 8.8756,30.9239 12.2089,30.2572 15.5,29.5C 15.1558,34.9712 17.4891,38.8046 22.5,41C 33.5474,43.0732 44.5474,42.9065 55.5,40.5C 62.1278,40.8898 65.7945,37.5565 66.5,30.5C 68.6208,30.3253 70.6208,30.6586 72.5,31.5C 70.2176,36.2839 71.5509,39.2839 76.5,40.5C 75.9232,44.9831 74.2565,48.9831 71.5,52.5C 62.5773,51.6943 53.5773,51.1943 44.5,51C 41.9053,49.1072 39.2386,49.1072 36.5,51C 26.991,51.1701 17.6577,51.6701 8.5,52.5C 5.06262,49.299 2.89595,45.299 2,40.5C 1.32924,39.7476 0.495904,39.4142 -0.5,39.5C -0.5,35.5 -0.5,31.5 -0.5,27.5 Z"/></g>
<g><path style="opacity:1" fill="#c2e1fd" d="M 5.5,31.5 C 5.7989,33.604 5.46557,35.604 4.5,37.5C 3.70245,37.0431 3.36912,36.3764 3.5,35.5C 3.15684,33.5168 3.82351,32.1834 5.5,31.5 Z"/></g>
<g><path style="opacity:1" fill="#64acfb" d="M 71.5,52.5 C 68.4552,55.5466 65.1219,58.2133 61.5,60.5C 61.1667,60.5 60.8333,60.5 60.5,60.5C 60.5824,58.7483 59.7491,57.7483 58,57.5C 45.4585,61.3749 32.9585,61.3749 20.5,57.5C 19.5748,58.3569 18.9081,59.3569 18.5,60.5C 18.1667,60.5 17.8333,60.5 17.5,60.5C 14.3119,58.0681 11.3119,55.4015 8.5,52.5C 17.6577,51.6701 26.991,51.1701 36.5,51C 39.2386,49.1072 41.9053,49.1072 44.5,51C 53.5773,51.1943 62.5773,51.6943 71.5,52.5 Z"/></g>
<g><path style="opacity:1" fill="#a2cffc" d="M 60.5,60.5 C 58.4677,61.0478 57.4677,62.3812 57.5,64.5C 45.4831,67.1245 33.4831,67.1245 21.5,64.5C 21.9118,62.0274 20.9118,60.6941 18.5,60.5C 18.9081,59.3569 19.5748,58.3569 20.5,57.5C 32.9585,61.3749 45.4585,61.3749 58,57.5C 59.7491,57.7483 60.5824,58.7483 60.5,60.5 Z"/></g>
<g><path style="opacity:0.977" fill="#c0defa" d="M 17.5,60.5 C 17.8333,60.5 18.1667,60.5 18.5,60.5C 20.9118,60.6941 21.9118,62.0274 21.5,64.5C 21.8601,68.3576 24.0268,70.3576 28,70.5C 31.4913,69.0739 35.158,68.4072 39,68.5C 44.8584,69.4439 50.6918,69.4439 56.5,68.5C 57.2458,67.2638 57.5792,65.9305 57.5,64.5C 57.4677,62.3812 58.4677,61.0478 60.5,60.5C 60.8333,60.5 61.1667,60.5 61.5,60.5C 63.4064,62.6046 64.7397,65.1046 65.5,68C 65.6134,69.6991 64.9468,70.8658 63.5,71.5C 46.1667,71.5 28.8333,71.5 11.5,71.5C 9.25488,69.5829 8.92155,67.2496 10.5,64.5C 12.3999,62.3841 14.7332,61.0507 17.5,60.5 Z"/></g>
<g><path style="opacity:1" fill="#63affa" d="M 21.5,64.5 C 33.4831,67.1245 45.4831,67.1245 57.5,64.5C 57.5792,65.9305 57.2458,67.2638 56.5,68.5C 50.6918,69.4439 44.8584,69.4439 39,68.5C 35.158,68.4072 31.4913,69.0739 28,70.5C 24.0268,70.3576 21.8601,68.3576 21.5,64.5 Z"/></g>
<g><path style="opacity:0.985" fill="#afd6f9" d="M 11.5,71.5 C 28.8333,71.5 46.1667,71.5 63.5,71.5C 61.3511,73.7458 58.6844,75.2458 55.5,76C 43.5,79.3333 31.5,79.3333 19.5,76C 16.3156,75.2458 13.6489,73.7458 11.5,71.5 Z"/></g>
</svg>
