<?xml version="1.0" encoding="UTF-8"?>
<!DOCTYPE svg PUBLIC "-//W3C//DTD SVG 1.1//EN" "http://www.w3.org/Graphics/SVG/1.1/DTD/svg11.dtd">
<svg xmlns="http://www.w3.org/2000/svg" version="1.1" width="192px" height="193px" style="shape-rendering:geometricPrecision; text-rendering:geometricPrecision; image-rendering:optimizeQuality; fill-rule:evenodd; clip-rule:evenodd" xmlns:xlink="http://www.w3.org/1999/xlink">
<g><path style="opacity:0.957" fill="#010100" d="M 93.5,-0.5 C 95.1667,-0.5 96.8333,-0.5 98.5,-0.5C 114.956,6.56146 131.29,13.8948 147.5,21.5C 145.51,22.4981 143.51,23.4981 141.5,24.5C 140.502,33.4754 140.168,42.4754 140.5,51.5C 138.5,51.5 136.5,51.5 134.5,51.5C 132.702,48.1691 132.036,44.5025 132.5,40.5C 132.824,36.4454 132.491,32.4454 131.5,28.5C 130.14,29.1799 128.807,29.8466 127.5,30.5C 122.693,31.769 118.027,33.4356 113.5,35.5C 110.672,36.6553 108.005,37.9886 105.5,39.5C 102.452,40.7935 99.2849,41.7935 96,42.5C 91.9983,41.5791 88.165,40.2458 84.5,38.5C 82.7496,37.1302 80.7496,36.1302 78.5,35.5C 73.6925,33.2308 68.6925,31.5642 63.5,30.5C 57.2274,27.3637 50.8941,24.1971 44.5,21C 60.9231,13.7827 77.2565,6.61601 93.5,-0.5 Z M 132.5,40.5 C 130.853,37.2054 129.186,33.8721 127.5,30.5C 128.807,29.8466 130.14,29.1799 131.5,28.5C 132.491,32.4454 132.824,36.4454 132.5,40.5 Z"/></g>
<g><path style="opacity:1" fill="#f9d3b2" d="M 63.5,30.5 C 68.6925,31.5642 73.6925,33.2308 78.5,35.5C 64.9142,37.5945 60.0808,45.2612 64,58.5C 68.3781,65.1941 74.5448,67.3607 82.5,65C 89.7585,60.8994 92.5918,54.7328 91,46.5C 89.5215,43.1725 87.3548,40.5058 84.5,38.5C 88.165,40.2458 91.9983,41.5791 96,42.5C 99.2849,41.7935 102.452,40.7935 105.5,39.5C 99.8037,45.7695 98.9704,52.7695 103,60.5C 107.842,65.2989 113.675,66.7989 120.5,65C 130.664,58.0078 131.998,49.6745 124.5,40C 120.947,37.8792 117.28,36.3792 113.5,35.5C 118.027,33.4356 122.693,31.769 127.5,30.5C 129.186,33.8721 130.853,37.2054 132.5,40.5C 132.036,44.5025 132.702,48.1691 134.5,51.5C 133.295,76.374 120.295,90.374 95.5,93.5C 68.6324,89.8063 55.7991,74.473 57,47.5C 58.0732,41.3639 60.2399,35.6972 63.5,30.5 Z"/></g>
<g><path style="opacity:1" fill="#7f7b77" d="M 78.5,35.5 C 80.7496,36.1302 82.7496,37.1302 84.5,38.5C 87.3548,40.5058 89.5215,43.1725 91,46.5C 92.5918,54.7328 89.7585,60.8994 82.5,65C 74.5448,67.3607 68.3781,65.1941 64,58.5C 60.0808,45.2612 64.9142,37.5945 78.5,35.5 Z"/></g>
<g><path style="opacity:1" fill="#f8d9bd" d="M 72.5,38.5 C 86.0038,38.1625 91.1704,44.4958 88,57.5C 83.869,63.115 78.369,64.9483 71.5,63C 64.9298,59.3449 62.7632,53.8449 65,46.5C 67.0282,43.3078 69.5282,40.6411 72.5,38.5 Z"/></g>
<g><path style="opacity:1" fill="#212332" d="M 73.5,44.5 C 80.004,44.1377 81.6707,46.6377 78.5,52C 72.5933,52.7465 70.9267,50.2465 73.5,44.5 Z"/></g>
<g><path style="opacity:1" fill="#7e7a76" d="M 113.5,35.5 C 117.28,36.3792 120.947,37.8792 124.5,40C 131.998,49.6745 130.664,58.0078 120.5,65C 113.675,66.7989 107.842,65.2989 103,60.5C 98.9704,52.7695 99.8037,45.7695 105.5,39.5C 108.005,37.9886 110.672,36.6553 113.5,35.5 Z"/></g>
<g><path style="opacity:1" fill="#f9dabd" d="M 110.5,38.5 C 124.004,38.1625 129.17,44.4958 126,57.5C 121.869,63.115 116.369,64.9483 109.5,63C 102.93,59.3449 100.763,53.8449 103,46.5C 105.028,43.3078 107.528,40.6411 110.5,38.5 Z"/></g>
<g><path style="opacity:1" fill="#4e4f5b" d="M 112.5,44.5 C 118.313,44.062 119.98,46.562 117.5,52C 110.683,52.8606 109.016,50.3606 112.5,44.5 Z"/></g>
<g><path style="opacity:0.978" fill="#508bff" d="M 36.5,93.5 C 44.0871,93.1858 51.5871,93.5192 59,94.5C 69.885,126.653 80.0516,158.986 89.5,191.5C 71.4969,191.667 53.4969,191.5 35.5,191C 27.7819,188.081 22.9485,182.581 21,174.5C 20.3333,153.167 20.3333,131.833 21,110.5C 23.247,102.09 28.4137,96.4231 36.5,93.5 Z"/></g>
<g><path style="opacity:0.97" fill="#508bff" d="M 132.5,93.5 C 140.917,93.0943 149.251,93.5943 157.5,95C 162.667,97.5 166.5,101.333 169,106.5C 170.125,118.446 170.625,130.446 170.5,142.5C 170.625,154.554 170.125,166.554 169,178.5C 166.41,184.758 161.91,188.925 155.5,191C 137.503,191.5 119.503,191.667 101.5,191.5C 111.026,158.588 121.359,125.921 132.5,93.5 Z M 127.5,153.5 C 136.839,153.334 146.173,153.5 155.5,154C 156.833,155.333 156.833,156.667 155.5,158C 145.833,158.667 136.167,158.667 126.5,158C 125.257,156.184 125.59,154.684 127.5,153.5 Z"/></g>
<g><path style="opacity:0.945" fill="#508cff" d="M 93.5,99.5 C 96.2257,99.2639 98.559,100.097 100.5,102C 105.73,106.066 110.397,110.566 114.5,115.5C 108.899,132.469 103.399,149.469 98,166.5C 96.3333,169.167 94.6667,169.167 93,166.5C 87.6008,149.469 82.1008,132.469 76.5,115.5C 76.5288,113.971 77.1955,112.804 78.5,112C 83.9403,108.291 88.9403,104.125 93.5,99.5 Z"/></g>
</svg>
