<?xml version="1.0" encoding="UTF-8"?>
<!DOCTYPE svg PUBLIC "-//W3C//DTD SVG 1.1//EN" "http://www.w3.org/Graphics/SVG/1.1/DTD/svg11.dtd">
<svg xmlns="http://www.w3.org/2000/svg" version="1.1" width="48px" height="48px" style="shape-rendering:geometricPrecision; text-rendering:geometricPrecision; image-rendering:optimizeQuality; fill-rule:evenodd; clip-rule:evenodd" xmlns:xlink="http://www.w3.org/1999/xlink">
<g><path style="opacity:0.919" fill="#508cff" d="M 32.5,4.5 C 36.9979,8.82985 41.6646,12.9965 46.5,17C 31.5037,17.4999 16.5037,17.6666 1.5,17.5C 1.5,15.1667 1.5,12.8333 1.5,10.5C 11.8333,10.5 22.1667,10.5 32.5,10.5C 32.5,8.5 32.5,6.5 32.5,4.5 Z"/></g>
<g><path style="opacity:0.905" fill="#508bff" d="M 1.5,31.5 C 16.324,30.5039 31.324,30.1706 46.5,30.5C 46.5,32.8333 46.5,35.1667 46.5,37.5C 35.8333,37.5 25.1667,37.5 14.5,37.5C 14.6621,39.5273 14.4955,41.5273 14,43.5C 9.96443,39.2964 5.79776,35.2964 1.5,31.5 Z"/></g>
</svg>
