<?xml version="1.0" encoding="UTF-8"?>
<!DOCTYPE svg PUBLIC "-//W3C//DTD SVG 1.1//EN" "http://www.w3.org/Graphics/SVG/1.1/DTD/svg11.dtd">
<svg xmlns="http://www.w3.org/2000/svg" version="1.1" width="80px" height="80px" style="shape-rendering:geometricPrecision; text-rendering:geometricPrecision; image-rendering:optimizeQuality; fill-rule:evenodd; clip-rule:evenodd" xmlns:xlink="http://www.w3.org/1999/xlink">
<g><path style="opacity:0.922" fill="#4f8bff" d="M 34.5,1.5 C 64.8511,2.68024 78.6845,18.3469 76,48.5C 75.1007,52.538 73.434,56.2046 71,59.5C 70.6667,63.5 70.3333,67.5 70,71.5C 64.7691,78.5922 58.7691,79.2588 52,73.5C 49.051,64.6351 48.7177,55.6351 51,46.5C 56.2393,40.6993 62.0726,40.0326 68.5,44.5C 70.5862,27.5107 63.5862,16.0107 47.5,10C 28.5501,6.88715 16.0501,14.3872 10,32.5C 9.33333,36.5 9.33333,40.5 10,44.5C 15.4022,40.5679 20.7355,40.5679 26,44.5C 26.6667,45.8333 27.3333,47.1667 28,48.5C 28.6667,55.8333 28.6667,63.1667 28,70.5C 22.4676,78.8737 16.1343,79.5404 9,72.5C 7.85533,67.9174 7.18866,63.2508 7,58.5C -1.97384,39.6432 1.19283,23.1432 16.5,9C 22.1485,5.40228 28.1485,2.90228 34.5,1.5 Z"/></g>
<g><path style="opacity:0.869" fill="#508bff" d="M 33.5,50.5 C 35.1439,50.2865 36.6439,50.6198 38,51.5C 38.6667,57.5 38.6667,63.5 38,69.5C 35.7328,70.9348 33.7328,70.6015 32,68.5C 31.3333,63.1667 31.3333,57.8333 32,52.5C 32.7172,51.9558 33.2172,51.2891 33.5,50.5 Z"/></g>
<g><path style="opacity:0.841" fill="#508bff" d="M 42.5,54.5 C 44.1703,54.7512 45.6703,55.4178 47,56.5C 47.6667,59.1667 47.6667,61.8333 47,64.5C 42.8332,67.4986 40.6665,66.3319 40.5,61C 40.3384,58.498 41.0051,56.3313 42.5,54.5 Z"/></g>
</svg>
