<?xml version="1.0" encoding="UTF-8"?>
<!DOCTYPE svg PUBLIC "-//W3C//DTD SVG 1.1//EN" "http://www.w3.org/Graphics/SVG/1.1/DTD/svg11.dtd">
<svg xmlns="http://www.w3.org/2000/svg" version="1.1" width="250px" height="200px" style="shape-rendering:geometricPrecision; text-rendering:geometricPrecision; image-rendering:optimizeQuality; fill-rule:evenodd; clip-rule:evenodd" xmlns:xlink="http://www.w3.org/1999/xlink">
<g><path style="opacity:0.939" fill="#e0e2eb" d="M 99.5,10.5 C 126.331,17.5212 137.831,34.8545 134,62.5C 131.155,71.0288 126.655,78.5288 120.5,85C 129.28,101.394 138.447,117.561 148,133.5C 148.317,136.207 147.484,138.54 145.5,140.5C 142.169,140.982 139.503,139.982 137.5,137.5C 134.737,132.299 131.737,127.299 128.5,122.5C 127.277,118.951 125.277,115.951 122.5,113.5C 118.682,105.865 114.349,98.5313 109.5,91.5C 90.36,97.0077 74.1933,92.3411 61,77.5C 47.9665,55.4011 50.7998,35.5677 69.5,18C 78.6286,11.7178 88.6286,9.21781 99.5,10.5 Z M 94.5,22.5 C 106.607,23.2905 115.44,28.9572 121,39.5C 127.252,58.0452 121.419,71.5452 103.5,80C 100.832,80.567 98.1656,81.067 95.5,81.5C 74.1728,76.5385 65.6728,63.2052 70,41.5C 75.2618,31.449 83.4284,25.1157 94.5,22.5 Z"/></g>
<g><path style="opacity:0.765" fill="#c8cce0" d="M 99.5,10.5 C 117.678,11.5144 130.178,20.5144 137,37.5C 142.213,55.852 138.047,71.6853 124.5,85C 129.712,94.5922 135.045,104.092 140.5,113.5C 143.33,119.83 146.663,125.83 150.5,131.5C 150.752,134.32 150.252,136.986 149,139.5C 147.989,140.337 146.822,140.67 145.5,140.5C 147.484,138.54 148.317,136.207 148,133.5C 138.447,117.561 129.28,101.394 120.5,85C 126.655,78.5288 131.155,71.0288 134,62.5C 137.831,34.8545 126.331,17.5212 99.5,10.5 Z"/></g>
<g><path style="opacity:1" fill="#ccd0e1" d="M 94.5,22.5 C 83.4284,25.1157 75.2618,31.449 70,41.5C 65.6728,63.2052 74.1728,76.5385 95.5,81.5C 81.934,81.9656 72.434,75.9656 67,63.5C 61.0552,42.8899 68.2219,29.0566 88.5,22C 90.7116,21.2109 92.7116,21.3775 94.5,22.5 Z"/></g>
<g><path style="opacity:0.667" fill="#dde1ea" d="M 31.5,55.5 C 34.7644,56.3242 38.0977,56.6576 41.5,56.5C 41.5,58.5 41.5,60.5 41.5,62.5C 40.448,62.3505 39.448,62.5172 38.5,63C 40.3591,65.9382 41.1924,69.1048 41,72.5C 37.4109,74.5297 33.5776,75.863 29.5,76.5C 29.1743,73.6887 28.3409,71.022 27,68.5C 24.0747,69.7915 21.9081,68.9582 20.5,66C 21.8182,64.0104 23.1515,62.0104 24.5,60C 26.5767,59.8078 28.5767,59.3078 30.5,58.5C 31.1272,57.5832 31.4606,56.5832 31.5,55.5 Z"/></g>
<g><path style="opacity:0.634" fill="#dde0ea" d="M 188.5,61.5 C 189.822,61.33 190.989,61.6634 192,62.5C 191.981,64.1075 191.815,65.7741 191.5,67.5C 193.929,67.415 195.929,66.415 197.5,64.5C 198.72,64.8869 199.387,65.7202 199.5,67C 197.972,71.223 196.305,75.3897 194.5,79.5C 189.438,81.0916 184.938,80.0916 181,76.5C 180.333,75.5 180.333,74.5 181,73.5C 183.725,69.6155 186.225,65.6155 188.5,61.5 Z"/></g>
<g><path style="opacity:0.675" fill="#e1e4f4" d="M 122.5,113.5 C 125.277,115.951 127.277,118.951 128.5,122.5C 103.5,122.5 78.5,122.5 53.5,122.5C 75.8867,115.875 98.8867,112.875 122.5,113.5 Z"/></g>
<g><path style="opacity:0.606" fill="#e4e7f5" d="M 140.5,113.5 C 166.249,114.381 190.915,119.715 214.5,129.5C 193.003,129.998 171.67,130.665 150.5,131.5C 146.663,125.83 143.33,119.83 140.5,113.5 Z"/></g>
<g><path style="opacity:0.551" fill="#e8ebf6" d="M 53.5,122.5 C 78.5,122.5 103.5,122.5 128.5,122.5C 131.737,127.299 134.737,132.299 137.5,137.5C 98.6631,137.832 59.9964,137.499 21.5,136.5C 30.9737,129.334 41.6404,124.667 53.5,122.5 Z"/></g>
<g><path style="opacity:0.476" fill="#eaedf7" d="M 214.5,129.5 C 218.612,131.728 222.612,134.228 226.5,137C 229.2,138.857 230.866,141.357 231.5,144.5C 159.5,144.5 87.5,144.5 15.5,144.5C 16.5389,141.079 18.5389,138.412 21.5,136.5C 59.9964,137.499 98.6631,137.832 137.5,137.5C 139.503,139.982 142.169,140.982 145.5,140.5C 146.822,140.67 147.989,140.337 149,139.5C 150.252,136.986 150.752,134.32 150.5,131.5C 171.67,130.665 193.003,129.998 214.5,129.5 Z"/></g>
<g><path style="opacity:0.391" fill="#eef1f9" d="M 15.5,144.5 C 87.5,144.5 159.5,144.5 231.5,144.5C 233.413,147.04 233.746,149.707 232.5,152.5C 159.833,152.5 87.1667,152.5 14.5,152.5C 14.2786,149.721 14.612,147.054 15.5,144.5 Z"/></g>
<g><path style="opacity:0.354" fill="#f2f3fa" d="M 14.5,152.5 C 87.1667,152.5 159.833,152.5 232.5,152.5C 232.312,155.206 231.312,157.539 229.5,159.5C 158.764,158.628 88.0977,158.628 17.5,159.5C 15.6878,157.539 14.6878,155.206 14.5,152.5 Z"/></g>
<g><path style="opacity:0.202" fill="#f7f7fc" d="M 229.5,159.5 C 218.768,170.205 205.768,176.538 190.5,178.5C 145.003,177.501 99.3364,177.168 53.5,177.5C 39.5449,175.189 27.5449,169.189 17.5,159.5C 88.0977,158.628 158.764,158.628 229.5,159.5 Z"/></g>
<g><path style="opacity:0.05" fill="#fcfdfd" d="M 53.5,177.5 C 99.3364,177.168 145.003,177.501 190.5,178.5C 147.431,188.572 104.097,189.072 60.5,180C 57.8958,179.61 55.5625,178.776 53.5,177.5 Z"/></g>
</svg>
