<?xml version="1.0" encoding="UTF-8" standalone="no"?>
<!DOCTYPE svg PUBLIC "-//W3C//DTD SVG 1.1//EN" "http://www.w3.org/Graphics/SVG/1.1/DTD/svg11.dtd">
<svg width="100%" height="100%" viewBox="0 0 267 179" version="1.1" xmlns="http://www.w3.org/2000/svg" xmlns:xlink="http://www.w3.org/1999/xlink" xml:space="preserve" xmlns:serif="http://www.serif.com/" style="fill-rule:evenodd;clip-rule:evenodd;stroke-linejoin:round;stroke-miterlimit:2;">
    <g transform="matrix(1,0,0,1,0.5,0.5)">
        <g>
            <path d="M71.5,-0.5L131.5,-0.5C124.734,34.499 117.9,69.499 111,104.5C95.253,106.886 79.419,107.052 63.5,105C59.344,104.815 55.344,103.982 51.5,102.5C58.68,68.265 65.347,33.932 71.5,-0.5Z" style="fill:rgb(0,96,174);fill-opacity:0.97;"/>
        </g>
        <g>
            <path d="M176.5,-0.5L236.5,-0.5C231.167,27.5 225.833,55.5 220.5,83.5C200.027,90.879 179.027,96.213 157.5,99.5C164.09,66.214 170.424,32.881 176.5,-0.5Z" style="fill:rgb(0,96,174);fill-opacity:0.97;"/>
        </g>
        <g>
            <path d="M266.5,69.5L266.5,72.5C265.662,72.842 265.328,73.508 265.5,74.5L265.5,76.5C262.137,83.03 257.47,88.53 251.5,93C230.93,106.531 208.596,116.198 184.5,122C136.682,134.633 88.349,137.299 39.5,130C29.733,127.856 20.4,124.522 11.5,120C5.335,116.356 1.335,111.189 -0.5,104.5L-0.5,100.5C1.534,92.926 5.868,86.76 12.5,82C24.882,73.643 38.216,67.143 52.5,62.5C53.696,62.846 53.696,63.346 52.5,64C39.927,68.196 29.094,75.03 20,84.5C18,88.167 18,91.833 20,95.5C27.009,101.623 35.175,105.456 44.5,107C104.674,115.092 163.341,108.759 220.5,88C231.416,83.962 240.916,77.796 249,69.5C251.704,66.001 252.037,62.334 250,58.5C245.633,53.796 240.466,50.296 234.5,48C245.225,49.277 254.725,53.444 263,60.5C264.664,63.327 265.83,66.327 266.5,69.5Z" style="fill:rgb(128,206,243);fill-opacity:0.93;"/>
        </g>
        <g>
            <path d="M201.5,178.5L142.5,178.5C144.909,163.454 147.576,148.454 150.5,133.5C171.466,130.467 191.966,125.467 212,118.5C212.5,118.833 213,119.167 213.5,119.5C209.242,139.122 205.242,158.789 201.5,178.5Z" style="fill:rgb(0,96,174);fill-opacity:0.95;"/>
        </g>
        <g>
            <path d="M96.5,178.5L37.5,178.5C39.676,165.12 42.176,151.787 45,138.5C46.009,137.342 47.342,136.675 49,136.5C67.551,138.944 86.051,139.944 104.5,139.5C101.725,152.484 99.058,165.484 96.5,178.5Z" style="fill:rgb(0,96,174);fill-opacity:0.95;"/>
        </g>
    </g>
</svg>
