<?xml version="1.0" encoding="UTF-8" standalone="no"?>
<!DOCTYPE svg PUBLIC "-//W3C//DTD SVG 1.1//EN" "http://www.w3.org/Graphics/SVG/1.1/DTD/svg11.dtd">
<svg width="100%" height="100%" viewBox="0 0 16 16" version="1.1" xmlns="http://www.w3.org/2000/svg" xmlns:xlink="http://www.w3.org/1999/xlink" xml:space="preserve" xmlns:serif="http://www.serif.com/" style="fill-rule:evenodd;clip-rule:evenodd;stroke-linejoin:round;stroke-miterlimit:2;">
    <path d="M11,3L11,8.75C11,9.575 10.663,10.325 10.119,10.869C9.575,11.413 8.825,11.75 8,11.75C6.35,11.75 5,10.4 5,8.75L5,3C5,1.35 6.35,0 8,0C9.65,0 11,1.35 11,3Z" style="fill:#CEDBE9;fill-rule:nonzero;"/>
    <path d="M12.75,7.75L12.75,10C12.75,10.044 12.744,10.088 12.733,10.131C12.444,11.197 11.813,12.102 10.978,12.739C10.298,13.258 9.484,13.602 8.609,13.711C8.547,13.719 8.5,13.772 8.5,13.834L8.5,14.75C8.5,14.887 8.613,15 8.75,15L10,15C10.552,15 11,15.448 11,16L5,16C5,15.448 5.448,15 6,15L7.25,15C7.388,15 7.5,14.887 7.5,14.75L7.5,13.836C7.5,13.773 7.453,13.72 7.391,13.713C5.441,13.467 3.792,12.064 3.267,10.131C3.256,10.089 3.25,10.044 3.25,10L3.25,7.761C3.25,7.489 3.464,7.258 3.736,7.25C4.019,7.242 4.25,7.469 4.25,7.75L4.25,9.778C4.25,9.886 4.267,9.994 4.302,10.095C4.833,11.67 6.322,12.75 8,12.75C9.678,12.75 11.167,11.67 11.698,10.095C11.733,9.994 11.75,9.886 11.75,9.778L11.75,7.761C11.75,7.489 11.964,7.258 12.236,7.25C12.519,7.242 12.75,7.469 12.75,7.75Z" style="fill:#CEDBE9;fill-rule:nonzero;"/>
</svg>
