<?xml version="1.0" encoding="UTF-8"?>
<!DOCTYPE svg PUBLIC "-//W3C//DTD SVG 1.1//EN" "http://www.w3.org/Graphics/SVG/1.1/DTD/svg11.dtd">
<svg xmlns="http://www.w3.org/2000/svg" version="1.1" width="240px" height="240px" style="shape-rendering:geometricPrecision; text-rendering:geometricPrecision; image-rendering:optimizeQuality; fill-rule:evenodd; clip-rule:evenodd" xmlns:xlink="http://www.w3.org/1999/xlink">
<g><path style="opacity:0.995" fill="#ecf5fd" d="M 104.5,-0.5 C 114.5,-0.5 124.5,-0.5 134.5,-0.5C 174.973,5.98864 205.473,26.9886 226,62.5C 232.682,75.9258 237.182,89.9258 239.5,104.5C 239.5,114.5 239.5,124.5 239.5,134.5C 234.348,170.156 217.014,198.156 187.5,218.5C 181.37,196.369 167.37,181.702 145.5,174.5C 139.024,172.071 132.358,170.405 125.5,169.5C 155.599,164.084 171.932,146.417 174.5,116.5C 176.131,91.2804 165.465,73.1137 142.5,62C 135.164,58.7486 127.497,57.2486 119.5,57.5C 100.923,57.7045 85.7567,65.0378 74,79.5C 65.9567,90.1341 62.4567,102.134 63.5,115.5C 66.6592,145.993 83.3258,163.993 113.5,169.5C 106.642,170.405 99.9758,172.071 93.5,174.5C 71.6664,181.667 57.6664,196.334 51.5,218.5C 22.2763,198.407 4.94298,170.74 -0.5,135.5C -0.5,124.833 -0.5,114.167 -0.5,103.5C 11.2886,45.378 46.2886,10.7113 104.5,-0.5 Z"/></g>
<g><path style="opacity:1" fill="#acd7fd" d="M 119.5,57.5 C 119.218,67.2193 119.551,76.8859 120.5,86.5C 114.474,96.6974 106.474,105.197 96.5,112C 87.9815,116.381 78.9815,118.381 69.5,118C 67.3594,117.427 65.3594,116.594 63.5,115.5C 62.4567,102.134 65.9567,90.1341 74,79.5C 85.7567,65.0378 100.923,57.7045 119.5,57.5 Z"/></g>
<g><path style="opacity:1" fill="#62b1f8" d="M 119.5,57.5 C 127.497,57.2486 135.164,58.7486 142.5,62C 165.465,73.1137 176.131,91.2804 174.5,116.5C 163.217,119.852 152.55,118.352 142.5,112C 132.433,105.773 125.1,97.2731 120.5,86.5C 119.551,76.8859 119.218,67.2193 119.5,57.5 Z"/></g>
<g><path style="opacity:1" fill="#fbe8ea" d="M 120.5,86.5 C 125.1,97.2731 132.433,105.773 142.5,112C 152.55,118.352 163.217,119.852 174.5,116.5C 171.932,146.417 155.599,164.084 125.5,169.5C 121.5,169.5 117.5,169.5 113.5,169.5C 83.3258,163.993 66.6592,145.993 63.5,115.5C 65.3594,116.594 67.3594,117.427 69.5,118C 78.9815,118.381 87.9815,116.381 96.5,112C 106.474,105.197 114.474,96.6974 120.5,86.5 Z"/></g>
<g><path style="opacity:1" fill="#fefdfd" d="M 113.5,169.5 C 117.5,169.5 121.5,169.5 125.5,169.5C 132.358,170.405 139.024,172.071 145.5,174.5C 145.34,176.153 144.674,177.486 143.5,178.5C 142.127,178.343 140.793,178.51 139.5,179C 132.738,183.369 126.405,188.202 120.5,193.5C 119.833,193.5 119.167,193.5 118.5,193.5C 112.235,188.687 105.902,183.854 99.5,179C 97.4567,178.36 95.7901,178.86 94.5,180.5C 94.4828,178.435 94.1495,176.435 93.5,174.5C 99.9758,172.071 106.642,170.405 113.5,169.5 Z"/></g>
<g><path style="opacity:1" fill="#538dfe" d="M 93.5,174.5 C 94.1495,176.435 94.4828,178.435 94.5,180.5C 92.6295,187.018 92.1295,193.685 93,200.5C 93.5853,203.62 94.9186,206.287 97,208.5C 104.612,204.041 111.778,199.041 118.5,193.5C 119.167,193.5 119.833,193.5 120.5,193.5C 127.222,199.041 134.388,204.041 142,208.5C 143.477,207.556 144.477,206.223 145,204.5C 147.26,195.635 146.76,186.968 143.5,178.5C 144.674,177.486 145.34,176.153 145.5,174.5C 167.37,181.702 181.37,196.369 187.5,218.5C 179.454,224.86 170.454,229.693 160.5,233C 151.817,235.63 143.151,237.797 134.5,239.5C 124.5,239.5 114.5,239.5 104.5,239.5C 89.9942,236.944 75.9942,232.444 62.5,226C 58.4204,223.971 54.7537,221.471 51.5,218.5C 57.6664,196.334 71.6664,181.667 93.5,174.5 Z"/></g>
<g><path style="opacity:1" fill="#fcb682" d="M 118.5,193.5 C 111.778,199.041 104.612,204.041 97,208.5C 94.9186,206.287 93.5853,203.62 93,200.5C 92.1295,193.685 92.6295,187.018 94.5,180.5C 95.7901,178.86 97.4567,178.36 99.5,179C 105.902,183.854 112.235,188.687 118.5,193.5 Z"/></g>
<g><path style="opacity:1" fill="#fcb683" d="M 143.5,178.5 C 146.76,186.968 147.26,195.635 145,204.5C 144.477,206.223 143.477,207.556 142,208.5C 134.388,204.041 127.222,199.041 120.5,193.5C 126.405,188.202 132.738,183.369 139.5,179C 140.793,178.51 142.127,178.343 143.5,178.5 Z"/></g>
</svg>
